<svg width="40" height="40" viewBox="0 0 40 40" fill="none" xmlns="http://www.w3.org/2000/svg">
  <rect width="40" height="40" rx="20" fill="#D9FFD7" />
  <path
    d="M27.2806 19.0306C27.2109 19.1003 27.1282 19.1557 27.0371 19.1934C26.9461 19.2311 26.8485 19.2506 26.7499 19.2506C26.6514 19.2506 26.5538 19.2311 26.4627 19.1934C26.3717 19.1557 26.289 19.1003 26.2193 19.0306L20.7499 13.5603V28.25C20.7499 28.4489 20.6709 28.6397 20.5303 28.7803C20.3896 28.921 20.1988 29 19.9999 29C19.801 29 19.6103 28.921 19.4696 28.7803C19.3289 28.6397 19.2499 28.4489 19.2499 28.25V13.5603L13.7806 19.0306C13.6398 19.1713 13.449 19.2504 13.2499 19.2504C13.0509 19.2504 12.86 19.1713 12.7193 19.0306C12.5786 18.8899 12.4995 18.699 12.4995 18.5C12.4995 18.301 12.5786 18.1101 12.7193 17.9694L19.4693 11.2194C19.539 11.1496 19.6217 11.0943 19.7127 11.0566C19.8038 11.0188 19.9014 10.9994 19.9999 10.9994C20.0985 10.9994 20.1961 11.0188 20.2871 11.0566C20.3782 11.0943 20.4609 11.1496 20.5306 11.2194L27.2806 17.9694C27.3503 18.039 27.4056 18.1217 27.4433 18.2128C27.4811 18.3038 27.5005 18.4014 27.5005 18.5C27.5005 18.5985 27.4811 18.6961 27.4433 18.7872C27.4056 18.8782 27.3503 18.961 27.2806 19.0306Z"
    fill="#11C308" />
</svg>