<svg width="40" height="40" viewBox="0 0 40 40" fill="none" xmlns="http://www.w3.org/2000/svg">
  <rect width="40" height="40" rx="20" fill="#D7FDFF" />
  <path
    d="M27.2806 20.9694C27.2109 20.8997 27.1282 20.8443 27.0371 20.8066C26.9461 20.7689 26.8485 20.7494 26.7499 20.7494C26.6514 20.7494 26.5538 20.7689 26.4627 20.8066C26.3717 20.8443 26.289 20.8997 26.2193 20.9694L20.7499 26.4397V11.75C20.7499 11.5511 20.6709 11.3603 20.5303 11.2197C20.3896 11.079 20.1988 11 19.9999 11C19.801 11 19.6103 11.079 19.4696 11.2197C19.3289 11.3603 19.2499 11.5511 19.2499 11.75V26.4397L13.7806 20.9694C13.6398 20.8287 13.449 20.7496 13.2499 20.7496C13.0509 20.7496 12.86 20.8287 12.7193 20.9694C12.5786 21.1101 12.4995 21.301 12.4995 21.5C12.4995 21.699 12.5786 21.8899 12.7193 22.0306L19.4693 28.7806C19.539 28.8504 19.6217 28.9057 19.7127 28.9434C19.8038 28.9812 19.9014 29.0006 19.9999 29.0006C20.0985 29.0006 20.1961 28.9812 20.2871 28.9434C20.3782 28.9057 20.4609 28.8504 20.5306 28.7806L27.2806 22.0306C27.3503 21.961 27.4056 21.8783 27.4433 21.7872C27.4811 21.6962 27.5005 21.5986 27.5005 21.5C27.5005 21.4015 27.4811 21.3039 27.4433 21.2128C27.4056 21.1218 27.3503 21.039 27.2806 20.9694Z"
    fill="#049FA7" />
</svg>