<svg width="24" height="24" viewBox="0 0 24 24" fill="none" xmlns="http://www.w3.org/2000/svg">
  <path
    d="M20.2959 14.204L12.7959 6.70402C12.6914 6.59914 12.5672 6.51592 12.4304 6.45914C12.2937 6.40236 12.1471 6.37313 11.999 6.37313C11.851 6.37313 11.7043 6.40236 11.5676 6.45914C11.4309 6.51592 11.3067 6.59914 11.2021 6.70402L3.70215 14.204C3.4908 14.4154 3.37207 14.702 3.37207 15.0009C3.37207 15.2998 3.4908 15.5864 3.70215 15.7978C3.91349 16.0091 4.20014 16.1278 4.49902 16.1278C4.79791 16.1278 5.08455 16.0091 5.2959 15.7978L12 9.09371L18.704 15.7987C18.9154 16.0101 19.202 16.1288 19.5009 16.1288C19.7998 16.1288 20.0864 16.0101 20.2978 15.7987C20.5091 15.5874 20.6278 15.3007 20.6278 15.0018C20.6278 14.7029 20.5091 14.4163 20.2978 14.205L20.2959 14.204Z"
    fill="#003701" />
</svg>