<svg width="40" height="40" viewBox="0 0 40 40" fill="none" xmlns="http://www.w3.org/2000/svg">
  <defs>
    <clipPath id="clip0_3556_253">
      <rect width="24" height="24" fill="white" transform="translate(8 8)" />
    </clipPath>
  </defs>
  <rect width="40" height="40" rx="20" fill="#F4E3C4" />
  <g clip-path="url(#clip0_3556_253)">
    <path
      d="M31.9456 18.9688L30.6331 15.6875C30.5218 15.4099 30.3296 15.1721 30.0816 15.0049C29.8335 14.8378 29.541 14.749 29.2419 14.75H26V14C26 13.8011 25.921 13.6103 25.7803 13.4697C25.6397 13.329 25.4489 13.25 25.25 13.25H11C10.6022 13.25 10.2206 13.408 9.93934 13.6893C9.65804 13.9706 9.5 14.3522 9.5 14.75V25.25C9.5 25.6478 9.65804 26.0294 9.93934 26.3107C10.2206 26.592 10.6022 26.75 11 26.75H12.5938C12.759 27.3953 13.1343 27.9673 13.6605 28.3757C14.1867 28.7842 14.8339 29.0059 15.5 29.0059C16.1661 29.0059 16.8133 28.7842 17.3395 28.3757C17.8657 27.9673 18.241 27.3953 18.4063 26.75H23.0938C23.259 27.3953 23.6343 27.9673 24.1605 28.3757C24.6867 28.7842 25.3339 29.0059 26 29.0059C26.6661 29.0059 27.3133 28.7842 27.8395 28.3757C28.3657 27.9673 28.741 27.3953 28.9063 26.75H30.5C30.8978 26.75 31.2794 26.592 31.5607 26.3107C31.842 26.0294 32 25.6478 32 25.25V19.25C32.0003 19.1536 31.9818 19.0581 31.9456 18.9688ZM26 16.25H29.2419L30.1419 18.5H26V16.25ZM11 14.75H24.5V20.75H11V14.75ZM15.5 27.5C15.2033 27.5 14.9133 27.412 14.6666 27.2472C14.42 27.0824 14.2277 26.8481 14.1142 26.574C14.0006 26.2999 13.9709 25.9983 14.0288 25.7074C14.0867 25.4164 14.2296 25.1491 14.4393 24.9393C14.6491 24.7296 14.9164 24.5867 15.2074 24.5288C15.4983 24.4709 15.7999 24.5006 16.074 24.6142C16.3481 24.7277 16.5824 24.92 16.7472 25.1666C16.912 25.4133 17 25.7033 17 26C17 26.3978 16.842 26.7794 16.5607 27.0607C16.2794 27.342 15.8978 27.5 15.5 27.5ZM23.0938 25.25H18.4063C18.241 24.6047 17.8657 24.0327 17.3395 23.6243C16.8133 23.2158 16.1661 22.9941 15.5 22.9941C14.8339 22.9941 14.1867 23.2158 13.6605 23.6243C13.1343 24.0327 12.759 24.6047 12.5938 25.25H11V22.25H24.5V23.4041C24.1551 23.6034 23.8532 23.8692 23.6119 24.1861C23.3705 24.5029 23.1944 24.8646 23.0938 25.25ZM26 27.5C25.7033 27.5 25.4133 27.412 25.1666 27.2472C24.92 27.0824 24.7277 26.8481 24.6142 26.574C24.5007 26.2999 24.4709 25.9983 24.5288 25.7074C24.5867 25.4164 24.7296 25.1491 24.9393 24.9393C25.1491 24.7296 25.4164 24.5867 25.7074 24.5288C25.9983 24.4709 26.2999 24.5006 26.574 24.6142C26.8481 24.7277 27.0824 24.92 27.2472 25.1666C27.412 25.4133 27.5 25.7033 27.5 26C27.5 26.3978 27.342 26.7794 27.0607 27.0607C26.7794 27.342 26.3978 27.5 26 27.5ZM30.5 25.25H28.9063C28.739 24.6063 28.363 24.0362 27.8371 23.629C27.3112 23.2218 26.6651 23.0006 26 23V20H30.5V25.25Z"
      fill="#C98810" />
  </g>
</svg>