<svg width="24" height="24" viewBox="0 0 24 24" fill="none" xmlns="http://www.w3.org/2000/svg" stroke-width="1.5" stroke="#A3A3A3">
  <path d="M17.8201 5.76998C16.0701 4.44998 14.0701 3.72998 12.0001 3.72998C8.47009 3.72998 5.18009 5.80998 2.89009 9.40998C1.99009 10.82 1.99009 13.19 2.89009 14.6C3.68009 15.84 4.60009 16.91 5.60009 17.77" stroke-linecap="round" stroke-linejoin="round" />
  <path d="M8.41992 19.53C9.55992 20.01 10.7699 20.27 11.9999 20.27C15.5299 20.27 18.8199 18.19 21.1099 14.59C22.0099 13.18 22.0099 10.81 21.1099 9.39999C20.7799 8.87999 20.4199 8.38999 20.0499 7.92999" stroke-linecap="round" stroke-linejoin="round" />
  <path d="M15 12a3 3 0 1 1-6 0 3 3 0 0 1 6 0Z" stroke-linecap="round" stroke-linejoin="round" />
</svg>