<svg width="1101" height="276" viewBox="0 0 1101 276" fill="none" xmlns="http://www.w3.org/2000/svg">
    <defs>
        <linearGradient id="paint0_linear_3556_306" x1="582.183" y1="14" x2="582.183" y2="250" gradientUnits="userSpaceOnUse">
            <stop stop-color="#5A65AB" stop-opacity="0.2" />
            <stop offset="1" stop-color="#5A65AB" stop-opacity="0" />
        </linearGradient>
    </defs>
    <path
        d="M12.9905 15V7.344L11.3645 8.322V7.332L12.9905 6.36H13.8845V15H12.9905ZM15.5598 16.254L15.6138 15.816C15.7738 15.828 15.8898 15.796 15.9618 15.72C16.0338 15.644 16.0778 15.542 16.0938 15.414C16.1098 15.286 16.1138 15.148 16.1058 15H15.5598V13.734H16.5858V15.24C16.5858 15.608 16.4918 15.884 16.3038 16.068C16.1198 16.252 15.8718 16.314 15.5598 16.254ZM21.6873 15.18C21.1553 15.18 20.6753 15.056 20.2473 14.808C19.8233 14.56 19.4873 14.224 19.2393 13.8C18.9913 13.372 18.8673 12.892 18.8673 12.36V9C18.8673 8.468 18.9913 7.99 19.2393 7.566C19.4873 7.138 19.8233 6.8 20.2473 6.552C20.6753 6.304 21.1553 6.18 21.6873 6.18C22.2193 6.18 22.6973 6.304 23.1213 6.552C23.5493 6.8 23.8873 7.138 24.1353 7.566C24.3833 7.99 24.5073 8.468 24.5073 9V12.36C24.5073 12.892 24.3833 13.372 24.1353 13.8C23.8873 14.224 23.5493 14.56 23.1213 14.808C22.6973 15.056 22.2193 15.18 21.6873 15.18ZM21.6873 14.328C22.0433 14.328 22.3673 14.242 22.6593 14.07C22.9513 13.894 23.1833 13.66 23.3553 13.368C23.5273 13.076 23.6133 12.754 23.6133 12.402V8.958C23.6133 8.602 23.5273 8.278 23.3553 7.986C23.1833 7.694 22.9513 7.462 22.6593 7.29C22.3673 7.114 22.0433 7.026 21.6873 7.026C21.3313 7.026 21.0073 7.114 20.7153 7.29C20.4233 7.462 20.1913 7.694 20.0193 7.986C19.8473 8.278 19.7613 8.602 19.7613 8.958V12.402C19.7613 12.754 19.8473 13.076 20.0193 13.368C20.1913 13.66 20.4233 13.894 20.7153 14.07C21.0073 14.242 21.3313 14.328 21.6873 14.328ZM29.0116 15.18C28.4796 15.18 27.9996 15.056 27.5716 14.808C27.1476 14.56 26.8116 14.224 26.5636 13.8C26.3156 13.372 26.1916 12.892 26.1916 12.36V9C26.1916 8.468 26.3156 7.99 26.5636 7.566C26.8116 7.138 27.1476 6.8 27.5716 6.552C27.9996 6.304 28.4796 6.18 29.0116 6.18C29.5436 6.18 30.0216 6.304 30.4456 6.552C30.8736 6.8 31.2116 7.138 31.4596 7.566C31.7076 7.99 31.8316 8.468 31.8316 9V12.36C31.8316 12.892 31.7076 13.372 31.4596 13.8C31.2116 14.224 30.8736 14.56 30.4456 14.808C30.0216 15.056 29.5436 15.18 29.0116 15.18ZM29.0116 14.328C29.3676 14.328 29.6916 14.242 29.9836 14.07C30.2756 13.894 30.5076 13.66 30.6796 13.368C30.8516 13.076 30.9376 12.754 30.9376 12.402V8.958C30.9376 8.602 30.8516 8.278 30.6796 7.986C30.5076 7.694 30.2756 7.462 29.9836 7.29C29.6916 7.114 29.3676 7.026 29.0116 7.026C28.6556 7.026 28.3316 7.114 28.0396 7.29C27.7476 7.462 27.5156 7.694 27.3436 7.986C27.1716 8.278 27.0856 8.602 27.0856 8.958V12.402C27.0856 12.754 27.1716 13.076 27.3436 13.368C27.5156 13.66 27.7476 13.894 28.0396 14.07C28.3316 14.242 28.6556 14.328 29.0116 14.328ZM36.3358 15.18C35.8038 15.18 35.3238 15.056 34.8958 14.808C34.4718 14.56 34.1358 14.224 33.8878 13.8C33.6398 13.372 33.5158 12.892 33.5158 12.36V9C33.5158 8.468 33.6398 7.99 33.8878 7.566C34.1358 7.138 34.4718 6.8 34.8958 6.552C35.3238 6.304 35.8038 6.18 36.3358 6.18C36.8678 6.18 37.3458 6.304 37.7698 6.552C38.1978 6.8 38.5358 7.138 38.7838 7.566C39.0318 7.99 39.1558 8.468 39.1558 9V12.36C39.1558 12.892 39.0318 13.372 38.7838 13.8C38.5358 14.224 38.1978 14.56 37.7698 14.808C37.3458 15.056 36.8678 15.18 36.3358 15.18ZM36.3358 14.328C36.6918 14.328 37.0158 14.242 37.3078 14.07C37.5998 13.894 37.8318 13.66 38.0038 13.368C38.1758 13.076 38.2618 12.754 38.2618 12.402V8.958C38.2618 8.602 38.1758 8.278 38.0038 7.986C37.8318 7.694 37.5998 7.462 37.3078 7.29C37.0158 7.114 36.6918 7.026 36.3358 7.026C35.9798 7.026 35.6558 7.114 35.3638 7.29C35.0718 7.462 34.8398 7.694 34.6678 7.986C34.4958 8.278 34.4098 8.602 34.4098 8.958V12.402C34.4098 12.754 34.4958 13.076 34.6678 13.368C34.8398 13.66 35.0718 13.894 35.3638 14.07C35.6558 14.242 35.9798 14.328 36.3358 14.328Z"
        fill="#98A2B3" />
    <path d="M48 10H1101" stroke="#E4E7EC" stroke-dasharray="4 4" />
    <path
        d="M21.8646 63.178C21.3246 63.178 20.8466 63.07 20.4306 62.854C20.0186 62.638 19.6946 62.336 19.4586 61.948C19.2266 61.556 19.1106 61.098 19.1106 60.574C19.1106 60.038 19.2406 59.562 19.5006 59.146C19.7606 58.726 20.1566 58.408 20.6886 58.192L20.6766 58.54C20.2326 58.376 19.8946 58.108 19.6626 57.736C19.4306 57.364 19.3146 56.952 19.3146 56.5C19.3146 56.02 19.4246 55.608 19.6446 55.264C19.8646 54.916 20.1646 54.648 20.5446 54.46C20.9286 54.272 21.3686 54.178 21.8646 54.178C22.3606 54.178 22.8006 54.272 23.1846 54.46C23.5686 54.648 23.8706 54.916 24.0906 55.264C24.3106 55.608 24.4206 56.02 24.4206 56.5C24.4206 56.952 24.3086 57.362 24.0846 57.73C23.8646 58.098 23.5266 58.368 23.0706 58.54L23.0406 58.192C23.5726 58.404 23.9706 58.72 24.2346 59.14C24.5026 59.56 24.6366 60.038 24.6366 60.574C24.6366 61.098 24.5186 61.556 24.2826 61.948C24.0466 62.336 23.7206 62.638 23.3046 62.854C22.8886 63.07 22.4086 63.178 21.8646 63.178ZM21.8646 62.332C22.4086 62.332 22.8506 62.182 23.1906 61.882C23.5306 61.578 23.7006 61.142 23.7006 60.574C23.7006 59.998 23.5326 59.562 23.1966 59.266C22.8606 58.966 22.4166 58.816 21.8646 58.816C21.3126 58.816 20.8706 58.966 20.5386 59.266C20.2066 59.562 20.0406 59.998 20.0406 60.574C20.0406 61.142 20.2086 61.578 20.5446 61.882C20.8806 62.182 21.3206 62.332 21.8646 62.332ZM21.8646 57.964C22.3446 57.964 22.7346 57.842 23.0346 57.598C23.3346 57.35 23.4846 56.984 23.4846 56.5C23.4846 56.016 23.3346 55.654 23.0346 55.414C22.7346 55.17 22.3446 55.048 21.8646 55.048C21.3846 55.048 20.9946 55.17 20.6946 55.414C20.3986 55.654 20.2506 56.016 20.2506 56.5C20.2506 56.984 20.3986 57.35 20.6946 57.598C20.9946 57.842 21.3846 57.964 21.8646 57.964ZM29.0116 63.178C28.4796 63.178 27.9996 63.054 27.5716 62.806C27.1476 62.558 26.8116 62.222 26.5636 61.798C26.3156 61.37 26.1916 60.89 26.1916 60.358V56.998C26.1916 56.466 26.3156 55.988 26.5636 55.564C26.8116 55.136 27.1476 54.798 27.5716 54.55C27.9996 54.302 28.4796 54.178 29.0116 54.178C29.5436 54.178 30.0216 54.302 30.4456 54.55C30.8736 54.798 31.2116 55.136 31.4596 55.564C31.7076 55.988 31.8316 56.466 31.8316 56.998V60.358C31.8316 60.89 31.7076 61.37 31.4596 61.798C31.2116 62.222 30.8736 62.558 30.4456 62.806C30.0216 63.054 29.5436 63.178 29.0116 63.178ZM29.0116 62.326C29.3676 62.326 29.6916 62.24 29.9836 62.068C30.2756 61.892 30.5076 61.658 30.6796 61.366C30.8516 61.074 30.9376 60.752 30.9376 60.4V56.956C30.9376 56.6 30.8516 56.276 30.6796 55.984C30.5076 55.692 30.2756 55.46 29.9836 55.288C29.6916 55.112 29.3676 55.024 29.0116 55.024C28.6556 55.024 28.3316 55.112 28.0396 55.288C27.7476 55.46 27.5156 55.692 27.3436 55.984C27.1716 56.276 27.0856 56.6 27.0856 56.956V60.4C27.0856 60.752 27.1716 61.074 27.3436 61.366C27.5156 61.658 27.7476 61.892 28.0396 62.068C28.3316 62.24 28.6556 62.326 29.0116 62.326ZM36.3358 63.178C35.8038 63.178 35.3238 63.054 34.8958 62.806C34.4718 62.558 34.1358 62.222 33.8878 61.798C33.6398 61.37 33.5158 60.89 33.5158 60.358V56.998C33.5158 56.466 33.6398 55.988 33.8878 55.564C34.1358 55.136 34.4718 54.798 34.8958 54.55C35.3238 54.302 35.8038 54.178 36.3358 54.178C36.8678 54.178 37.3458 54.302 37.7698 54.55C38.1978 54.798 38.5358 55.136 38.7838 55.564C39.0318 55.988 39.1558 56.466 39.1558 56.998V60.358C39.1558 60.89 39.0318 61.37 38.7838 61.798C38.5358 62.222 38.1978 62.558 37.7698 62.806C37.3458 63.054 36.8678 63.178 36.3358 63.178ZM36.3358 62.326C36.6918 62.326 37.0158 62.24 37.3078 62.068C37.5998 61.892 37.8318 61.658 38.0038 61.366C38.1758 61.074 38.2618 60.752 38.2618 60.4V56.956C38.2618 56.6 38.1758 56.276 38.0038 55.984C37.8318 55.692 37.5998 55.46 37.3078 55.288C37.0158 55.112 36.6918 55.024 36.3358 55.024C35.9798 55.024 35.6558 55.112 35.3638 55.288C35.0718 55.46 34.8398 55.692 34.6678 55.984C34.4958 56.276 34.4098 56.6 34.4098 56.956V60.4C34.4098 60.752 34.4958 61.074 34.6678 61.366C34.8398 61.658 35.0718 61.892 35.3638 62.068C35.6558 62.24 35.9798 62.326 36.3358 62.326Z"
        fill="#98A2B3" />
    <path d="M48 57.998H1101" stroke="#E4E7EC" stroke-dasharray="4 4" />
    <path
        d="M21.6722 111.18C21.1322 111.18 20.6402 111.05 20.1962 110.79C19.7562 110.526 19.4042 110.17 19.1402 109.722C18.8802 109.27 18.7502 108.762 18.7502 108.198V105.204C18.7502 104.624 18.8802 104.108 19.1402 103.656C19.4002 103.2 19.7542 102.842 20.2022 102.582C20.6542 102.318 21.1662 102.186 21.7382 102.186C22.2302 102.186 22.6862 102.294 23.1062 102.51C23.5302 102.726 23.8762 103.028 24.1442 103.416L23.4662 103.974C23.2822 103.686 23.0382 103.456 22.7342 103.284C22.4302 103.112 22.0982 103.026 21.7382 103.026C21.3342 103.026 20.9742 103.124 20.6582 103.32C20.3422 103.516 20.0942 103.774 19.9142 104.094C19.7342 104.41 19.6442 104.754 19.6442 105.126V107.01L19.4222 106.758C19.6742 106.362 20.0042 106.042 20.4122 105.798C20.8242 105.554 21.2722 105.432 21.7562 105.432C22.2922 105.432 22.7742 105.56 23.2022 105.816C23.6302 106.068 23.9702 106.41 24.2222 106.842C24.4742 107.274 24.6002 107.758 24.6002 108.294C24.6002 108.826 24.4662 109.31 24.1982 109.746C23.9342 110.182 23.5802 110.53 23.1362 110.79C22.6962 111.05 22.2082 111.18 21.6722 111.18ZM21.6722 110.322C22.0482 110.322 22.3902 110.232 22.6982 110.052C23.0102 109.872 23.2562 109.628 23.4362 109.32C23.6202 109.012 23.7122 108.67 23.7122 108.294C23.7122 107.918 23.6202 107.576 23.4362 107.268C23.2562 106.956 23.0122 106.71 22.7042 106.53C22.3962 106.346 22.0542 106.254 21.6782 106.254C21.3022 106.254 20.9602 106.346 20.6522 106.53C20.3442 106.71 20.0982 106.956 19.9142 107.268C19.7342 107.576 19.6442 107.918 19.6442 108.294C19.6442 108.666 19.7342 109.006 19.9142 109.314C20.0942 109.622 20.3382 109.868 20.6462 110.052C20.9542 110.232 21.2962 110.322 21.6722 110.322ZM29.0116 111.18C28.4796 111.18 27.9996 111.056 27.5716 110.808C27.1476 110.56 26.8116 110.224 26.5636 109.8C26.3156 109.372 26.1916 108.892 26.1916 108.36V105C26.1916 104.468 26.3156 103.99 26.5636 103.566C26.8116 103.138 27.1476 102.8 27.5716 102.552C27.9996 102.304 28.4796 102.18 29.0116 102.18C29.5436 102.18 30.0216 102.304 30.4456 102.552C30.8736 102.8 31.2116 103.138 31.4596 103.566C31.7076 103.99 31.8316 104.468 31.8316 105V108.36C31.8316 108.892 31.7076 109.372 31.4596 109.8C31.2116 110.224 30.8736 110.56 30.4456 110.808C30.0216 111.056 29.5436 111.18 29.0116 111.18ZM29.0116 110.328C29.3676 110.328 29.6916 110.242 29.9836 110.07C30.2756 109.894 30.5076 109.66 30.6796 109.368C30.8516 109.076 30.9376 108.754 30.9376 108.402V104.958C30.9376 104.602 30.8516 104.278 30.6796 103.986C30.5076 103.694 30.2756 103.462 29.9836 103.29C29.6916 103.114 29.3676 103.026 29.0116 103.026C28.6556 103.026 28.3316 103.114 28.0396 103.29C27.7476 103.462 27.5156 103.694 27.3436 103.986C27.1716 104.278 27.0856 104.602 27.0856 104.958V108.402C27.0856 108.754 27.1716 109.076 27.3436 109.368C27.5156 109.66 27.7476 109.894 28.0396 110.07C28.3316 110.242 28.6556 110.328 29.0116 110.328ZM36.3358 111.18C35.8038 111.18 35.3238 111.056 34.8958 110.808C34.4718 110.56 34.1358 110.224 33.8878 109.8C33.6398 109.372 33.5158 108.892 33.5158 108.36V105C33.5158 104.468 33.6398 103.99 33.8878 103.566C34.1358 103.138 34.4718 102.8 34.8958 102.552C35.3238 102.304 35.8038 102.18 36.3358 102.18C36.8678 102.18 37.3458 102.304 37.7698 102.552C38.1978 102.8 38.5358 103.138 38.7838 103.566C39.0318 103.99 39.1558 104.468 39.1558 105V108.36C39.1558 108.892 39.0318 109.372 38.7838 109.8C38.5358 110.224 38.1978 110.56 37.7698 110.808C37.3458 111.056 36.8678 111.18 36.3358 111.18ZM36.3358 110.328C36.6918 110.328 37.0158 110.242 37.3078 110.07C37.5998 109.894 37.8318 109.66 38.0038 109.368C38.1758 109.076 38.2618 108.754 38.2618 108.402V104.958C38.2618 104.602 38.1758 104.278 38.0038 103.986C37.8318 103.694 37.5998 103.462 37.3078 103.29C37.0158 103.114 36.6918 103.026 36.3358 103.026C35.9798 103.026 35.6558 103.114 35.3638 103.29C35.0718 103.462 34.8398 103.694 34.6678 103.986C34.4958 104.278 34.4098 104.602 34.4098 104.958V108.402C34.4098 108.754 34.4958 109.076 34.6678 109.368C34.8398 109.66 35.0718 109.894 35.3638 110.07C35.6558 110.242 35.9798 110.328 36.3358 110.328Z"
        fill="#98A2B3" />
    <path d="M48 106H1101" stroke="#E4E7EC" stroke-dasharray="4 4" />
    <path
        d="M22.9174 158.998V157.324H18.8734V156.484L21.7654 150.358H22.7554L19.8634 156.484H22.9174V153.964H23.8054V156.484H24.7474V157.324H23.8054V158.998H22.9174ZM29.0116 159.178C28.4796 159.178 27.9996 159.054 27.5716 158.806C27.1476 158.558 26.8116 158.222 26.5636 157.798C26.3156 157.37 26.1916 156.89 26.1916 156.358V152.998C26.1916 152.466 26.3156 151.988 26.5636 151.564C26.8116 151.136 27.1476 150.798 27.5716 150.55C27.9996 150.302 28.4796 150.178 29.0116 150.178C29.5436 150.178 30.0216 150.302 30.4456 150.55C30.8736 150.798 31.2116 151.136 31.4596 151.564C31.7076 151.988 31.8316 152.466 31.8316 152.998V156.358C31.8316 156.89 31.7076 157.37 31.4596 157.798C31.2116 158.222 30.8736 158.558 30.4456 158.806C30.0216 159.054 29.5436 159.178 29.0116 159.178ZM29.0116 158.326C29.3676 158.326 29.6916 158.24 29.9836 158.068C30.2756 157.892 30.5076 157.658 30.6796 157.366C30.8516 157.074 30.9376 156.752 30.9376 156.4V152.956C30.9376 152.6 30.8516 152.276 30.6796 151.984C30.5076 151.692 30.2756 151.46 29.9836 151.288C29.6916 151.112 29.3676 151.024 29.0116 151.024C28.6556 151.024 28.3316 151.112 28.0396 151.288C27.7476 151.46 27.5156 151.692 27.3436 151.984C27.1716 152.276 27.0856 152.6 27.0856 152.956V156.4C27.0856 156.752 27.1716 157.074 27.3436 157.366C27.5156 157.658 27.7476 157.892 28.0396 158.068C28.3316 158.24 28.6556 158.326 29.0116 158.326ZM36.3358 159.178C35.8038 159.178 35.3238 159.054 34.8958 158.806C34.4718 158.558 34.1358 158.222 33.8878 157.798C33.6398 157.37 33.5158 156.89 33.5158 156.358V152.998C33.5158 152.466 33.6398 151.988 33.8878 151.564C34.1358 151.136 34.4718 150.798 34.8958 150.55C35.3238 150.302 35.8038 150.178 36.3358 150.178C36.8678 150.178 37.3458 150.302 37.7698 150.55C38.1978 150.798 38.5358 151.136 38.7838 151.564C39.0318 151.988 39.1558 152.466 39.1558 152.998V156.358C39.1558 156.89 39.0318 157.37 38.7838 157.798C38.5358 158.222 38.1978 158.558 37.7698 158.806C37.3458 159.054 36.8678 159.178 36.3358 159.178ZM36.3358 158.326C36.6918 158.326 37.0158 158.24 37.3078 158.068C37.5998 157.892 37.8318 157.658 38.0038 157.366C38.1758 157.074 38.2618 156.752 38.2618 156.4V152.956C38.2618 152.6 38.1758 152.276 38.0038 151.984C37.8318 151.692 37.5998 151.46 37.3078 151.288C37.0158 151.112 36.6918 151.024 36.3358 151.024C35.9798 151.024 35.6558 151.112 35.3638 151.288C35.0718 151.46 34.8398 151.692 34.6678 151.984C34.4958 152.276 34.4098 152.6 34.4098 152.956V156.4C34.4098 156.752 34.4958 157.074 34.6678 157.366C34.8398 157.658 35.0718 157.892 35.3638 158.068C35.6558 158.24 35.9798 158.326 36.3358 158.326Z"
        fill="#98A2B3" />
    <path d="M48 153.998H1101" stroke="#E4E7EC" stroke-dasharray="4 4" />
    <path
        d="M19.1078 206.99L19.1138 206.186L23.0198 202.658C23.3558 202.354 23.5778 202.066 23.6858 201.794C23.7978 201.518 23.8538 201.23 23.8538 200.93C23.8538 200.574 23.7698 200.252 23.6018 199.964C23.4338 199.676 23.2078 199.448 22.9238 199.28C22.6398 199.108 22.3218 199.022 21.9698 199.022C21.6018 199.022 21.2738 199.11 20.9858 199.286C20.6978 199.462 20.4698 199.694 20.3018 199.982C20.1378 200.27 20.0578 200.584 20.0618 200.924H19.1618C19.1618 200.4 19.2858 199.93 19.5338 199.514C19.7818 199.098 20.1178 198.772 20.5418 198.536C20.9658 198.296 21.4458 198.176 21.9818 198.176C22.5058 198.176 22.9758 198.3 23.3918 198.548C23.8118 198.792 24.1418 199.124 24.3818 199.544C24.6258 199.96 24.7478 200.424 24.7478 200.936C24.7478 201.296 24.7038 201.614 24.6158 201.89C24.5318 202.162 24.3978 202.416 24.2138 202.652C24.0338 202.884 23.8038 203.124 23.5238 203.372L20.0558 206.504L19.9178 206.144H24.7478V206.99H19.1078ZM29.0116 207.176C28.4796 207.176 27.9996 207.052 27.5716 206.804C27.1476 206.556 26.8116 206.22 26.5636 205.796C26.3156 205.368 26.1916 204.888 26.1916 204.356V200.996C26.1916 200.464 26.3156 199.986 26.5636 199.562C26.8116 199.134 27.1476 198.796 27.5716 198.548C27.9996 198.3 28.4796 198.176 29.0116 198.176C29.5436 198.176 30.0216 198.3 30.4456 198.548C30.8736 198.796 31.2116 199.134 31.4596 199.562C31.7076 199.986 31.8316 200.464 31.8316 200.996V204.356C31.8316 204.888 31.7076 205.368 31.4596 205.796C31.2116 206.22 30.8736 206.556 30.4456 206.804C30.0216 207.052 29.5436 207.176 29.0116 207.176ZM29.0116 206.324C29.3676 206.324 29.6916 206.238 29.9836 206.066C30.2756 205.89 30.5076 205.656 30.6796 205.364C30.8516 205.072 30.9376 204.75 30.9376 204.398V200.954C30.9376 200.598 30.8516 200.274 30.6796 199.982C30.5076 199.69 30.2756 199.458 29.9836 199.286C29.6916 199.11 29.3676 199.022 29.0116 199.022C28.6556 199.022 28.3316 199.11 28.0396 199.286C27.7476 199.458 27.5156 199.69 27.3436 199.982C27.1716 200.274 27.0856 200.598 27.0856 200.954V204.398C27.0856 204.75 27.1716 205.072 27.3436 205.364C27.5156 205.656 27.7476 205.89 28.0396 206.066C28.3316 206.238 28.6556 206.324 29.0116 206.324ZM36.3358 207.176C35.8038 207.176 35.3238 207.052 34.8958 206.804C34.4718 206.556 34.1358 206.22 33.8878 205.796C33.6398 205.368 33.5158 204.888 33.5158 204.356V200.996C33.5158 200.464 33.6398 199.986 33.8878 199.562C34.1358 199.134 34.4718 198.796 34.8958 198.548C35.3238 198.3 35.8038 198.176 36.3358 198.176C36.8678 198.176 37.3458 198.3 37.7698 198.548C38.1978 198.796 38.5358 199.134 38.7838 199.562C39.0318 199.986 39.1558 200.464 39.1558 200.996V204.356C39.1558 204.888 39.0318 205.368 38.7838 205.796C38.5358 206.22 38.1978 206.556 37.7698 206.804C37.3458 207.052 36.8678 207.176 36.3358 207.176ZM36.3358 206.324C36.6918 206.324 37.0158 206.238 37.3078 206.066C37.5998 205.89 37.8318 205.656 38.0038 205.364C38.1758 205.072 38.2618 204.75 38.2618 204.398V200.954C38.2618 200.598 38.1758 200.274 38.0038 199.982C37.8318 199.69 37.5998 199.458 37.3078 199.286C37.0158 199.11 36.6918 199.022 36.3358 199.022C35.9798 199.022 35.6558 199.11 35.3638 199.286C35.0718 199.458 34.8398 199.69 34.6678 199.982C34.4958 200.274 34.4098 200.598 34.4098 200.954V204.398C34.4098 204.75 34.4958 205.072 34.6678 205.364C34.8398 205.656 35.0718 205.89 35.3638 206.066C35.6558 206.238 35.9798 206.324 36.3358 206.324Z"
        fill="#98A2B3" />
    <path d="M48 201.996H1101" stroke="#E4E7EC" stroke-dasharray="4 4" />
    <path
        d="M36.3358 255.178C35.8038 255.178 35.3238 255.054 34.8958 254.806C34.4718 254.558 34.1358 254.222 33.8878 253.798C33.6398 253.37 33.5158 252.89 33.5158 252.358V248.998C33.5158 248.466 33.6398 247.988 33.8878 247.564C34.1358 247.136 34.4718 246.798 34.8958 246.55C35.3238 246.302 35.8038 246.178 36.3358 246.178C36.8678 246.178 37.3458 246.302 37.7698 246.55C38.1978 246.798 38.5358 247.136 38.7838 247.564C39.0318 247.988 39.1558 248.466 39.1558 248.998V252.358C39.1558 252.89 39.0318 253.37 38.7838 253.798C38.5358 254.222 38.1978 254.558 37.7698 254.806C37.3458 255.054 36.8678 255.178 36.3358 255.178ZM36.3358 254.326C36.6918 254.326 37.0158 254.24 37.3078 254.068C37.5998 253.892 37.8318 253.658 38.0038 253.366C38.1758 253.074 38.2618 252.752 38.2618 252.4V248.956C38.2618 248.6 38.1758 248.276 38.0038 247.984C37.8318 247.692 37.5998 247.46 37.3078 247.288C37.0158 247.112 36.6918 247.024 36.3358 247.024C35.9798 247.024 35.6558 247.112 35.3638 247.288C35.0718 247.46 34.8398 247.692 34.6678 247.984C34.4958 248.276 34.4098 248.6 34.4098 248.956V252.4C34.4098 252.752 34.4958 253.074 34.6678 253.366C34.8398 253.658 35.0718 253.892 35.3638 254.068C35.6558 254.24 35.9798 254.326 36.3358 254.326Z"
        fill="#98A2B3" />
    <path d="M48 249.998H1101" stroke="#E4E7EC" />
    <path d="M106.61 271V263.344L104.984 264.322V263.332L106.61 262.36H107.504V271H106.61Z" fill="#98A2B3" />
    <path
        d="M190.249 270.994L190.255 270.19L194.161 266.662C194.497 266.358 194.719 266.07 194.827 265.798C194.939 265.522 194.995 265.234 194.995 264.934C194.995 264.578 194.911 264.256 194.743 263.968C194.575 263.68 194.349 263.452 194.065 263.284C193.781 263.112 193.463 263.026 193.111 263.026C192.743 263.026 192.415 263.114 192.127 263.29C191.839 263.466 191.611 263.698 191.443 263.986C191.279 264.274 191.199 264.588 191.203 264.928H190.303C190.303 264.404 190.427 263.934 190.675 263.518C190.923 263.102 191.259 262.776 191.683 262.54C192.107 262.3 192.587 262.18 193.123 262.18C193.647 262.18 194.117 262.304 194.533 262.552C194.953 262.796 195.283 263.128 195.523 263.548C195.767 263.964 195.889 264.428 195.889 264.94C195.889 265.3 195.845 265.618 195.757 265.894C195.673 266.166 195.539 266.42 195.355 266.656C195.175 266.888 194.945 267.128 194.665 267.376L191.197 270.508L191.059 270.148H195.889V270.994H190.249Z"
        fill="#98A2B3" />
    <path
        d="M279.386 271.174C278.958 271.174 278.564 271.098 278.204 270.946C277.844 270.794 277.534 270.578 277.274 270.298C277.014 270.014 276.824 269.676 276.704 269.284L277.544 269.032C277.688 269.46 277.924 269.784 278.252 270.004C278.584 270.224 278.958 270.33 279.374 270.322C279.758 270.314 280.088 270.228 280.364 270.064C280.644 269.9 280.858 269.672 281.006 269.38C281.154 269.088 281.228 268.75 281.228 268.366C281.228 267.778 281.056 267.306 280.712 266.95C280.372 266.59 279.922 266.41 279.362 266.41C279.206 266.41 279.042 266.432 278.87 266.476C278.698 266.516 278.538 266.574 278.39 266.65L277.946 265.948L281.306 262.846L281.45 263.206H277.046V262.36H282.038V263.218L279.11 266.014L279.098 265.666C279.698 265.59 280.226 265.658 280.682 265.87C281.138 266.082 281.494 266.406 281.75 266.842C282.01 267.274 282.14 267.782 282.14 268.366C282.14 268.918 282.02 269.406 281.78 269.83C281.544 270.25 281.218 270.58 280.802 270.82C280.386 271.056 279.914 271.174 279.386 271.174Z"
        fill="#98A2B3" />
    <path d="M367.115 271V269.326H363.071V268.486L365.963 262.36H366.953L364.061 268.486H367.115V265.966H368.003V268.486H368.945V269.326H368.003V271H367.115Z" fill="#98A2B3" />
    <path
        d="M452.406 271.18C451.958 271.18 451.544 271.088 451.164 270.904C450.784 270.72 450.46 270.466 450.192 270.142C449.924 269.818 449.732 269.446 449.616 269.026L450.462 268.798C450.538 269.11 450.676 269.38 450.876 269.608C451.076 269.832 451.31 270.006 451.578 270.13C451.85 270.254 452.134 270.316 452.43 270.316C452.814 270.316 453.158 270.224 453.462 270.04C453.77 269.852 454.014 269.604 454.194 269.296C454.374 268.988 454.464 268.65 454.464 268.282C454.464 267.902 454.37 267.56 454.182 267.256C453.994 266.948 453.746 266.704 453.438 266.524C453.13 266.344 452.794 266.254 452.43 266.254C452.022 266.254 451.67 266.344 451.374 266.524C451.078 266.7 450.842 266.922 450.666 267.19L449.862 266.854L450.126 262.36H454.74V263.206H450.516L450.954 262.792L450.72 266.626L450.498 266.332C450.746 266.048 451.046 265.826 451.398 265.666C451.75 265.506 452.12 265.426 452.508 265.426C453.04 265.426 453.52 265.554 453.948 265.81C454.376 266.062 454.716 266.404 454.968 266.836C455.22 267.268 455.346 267.75 455.346 268.282C455.346 268.81 455.212 269.294 454.944 269.734C454.676 270.17 454.32 270.52 453.876 270.784C453.432 271.048 452.942 271.18 452.406 271.18Z"
        fill="#98A2B3" />
    <path
        d="M538.99 271.18C538.45 271.18 537.958 271.05 537.514 270.79C537.074 270.526 536.722 270.17 536.458 269.722C536.198 269.27 536.068 268.762 536.068 268.198V265.204C536.068 264.624 536.198 264.108 536.458 263.656C536.718 263.2 537.072 262.842 537.52 262.582C537.972 262.318 538.484 262.186 539.056 262.186C539.548 262.186 540.004 262.294 540.424 262.51C540.848 262.726 541.194 263.028 541.462 263.416L540.784 263.974C540.6 263.686 540.356 263.456 540.052 263.284C539.748 263.112 539.416 263.026 539.056 263.026C538.652 263.026 538.292 263.124 537.976 263.32C537.66 263.516 537.412 263.774 537.232 264.094C537.052 264.41 536.962 264.754 536.962 265.126V267.01L536.74 266.758C536.992 266.362 537.322 266.042 537.73 265.798C538.142 265.554 538.59 265.432 539.074 265.432C539.61 265.432 540.092 265.56 540.52 265.816C540.948 266.068 541.288 266.41 541.54 266.842C541.792 267.274 541.918 267.758 541.918 268.294C541.918 268.826 541.784 269.31 541.516 269.746C541.252 270.182 540.898 270.53 540.454 270.79C540.014 271.05 539.526 271.18 538.99 271.18ZM538.99 270.322C539.366 270.322 539.708 270.232 540.016 270.052C540.328 269.872 540.574 269.628 540.754 269.32C540.938 269.012 541.03 268.67 541.03 268.294C541.03 267.918 540.938 267.576 540.754 267.268C540.574 266.956 540.33 266.71 540.022 266.53C539.714 266.346 539.372 266.254 538.996 266.254C538.62 266.254 538.278 266.346 537.97 266.53C537.662 266.71 537.416 266.956 537.232 267.268C537.052 267.576 536.962 267.918 536.962 268.294C536.962 268.666 537.052 269.006 537.232 269.314C537.412 269.622 537.656 269.868 537.964 270.052C538.272 270.232 538.614 270.322 538.99 270.322Z"
        fill="#98A2B3" />
    <path d="M623.708 271L626.888 263.218H622.886V262.36H627.83V263.218L624.656 271H623.708Z" fill="#98A2B3" />
    <path
        d="M711.881 271.18C711.341 271.18 710.863 271.072 710.447 270.856C710.035 270.64 709.711 270.338 709.475 269.95C709.243 269.558 709.127 269.1 709.127 268.576C709.127 268.04 709.257 267.564 709.517 267.148C709.777 266.728 710.173 266.41 710.705 266.194L710.693 266.542C710.249 266.378 709.911 266.11 709.679 265.738C709.447 265.366 709.331 264.954 709.331 264.502C709.331 264.022 709.441 263.61 709.661 263.266C709.881 262.918 710.181 262.65 710.561 262.462C710.945 262.274 711.385 262.18 711.881 262.18C712.377 262.18 712.817 262.274 713.201 262.462C713.585 262.65 713.887 262.918 714.107 263.266C714.327 263.61 714.437 264.022 714.437 264.502C714.437 264.954 714.325 265.364 714.101 265.732C713.881 266.1 713.543 266.37 713.087 266.542L713.057 266.194C713.589 266.406 713.987 266.722 714.251 267.142C714.519 267.562 714.653 268.04 714.653 268.576C714.653 269.1 714.535 269.558 714.299 269.95C714.063 270.338 713.737 270.64 713.321 270.856C712.905 271.072 712.425 271.18 711.881 271.18ZM711.881 270.334C712.425 270.334 712.867 270.184 713.207 269.884C713.547 269.58 713.717 269.144 713.717 268.576C713.717 268 713.549 267.564 713.213 267.268C712.877 266.968 712.433 266.818 711.881 266.818C711.329 266.818 710.887 266.968 710.555 267.268C710.223 267.564 710.057 268 710.057 268.576C710.057 269.144 710.225 269.58 710.561 269.884C710.897 270.184 711.337 270.334 711.881 270.334ZM711.881 265.966C712.361 265.966 712.751 265.844 713.051 265.6C713.351 265.352 713.501 264.986 713.501 264.502C713.501 264.018 713.351 263.656 713.051 263.416C712.751 263.172 712.361 263.05 711.881 263.05C711.401 263.05 711.011 263.172 710.711 263.416C710.415 263.656 710.267 264.018 710.267 264.502C710.267 264.986 710.415 265.352 710.711 265.6C711.011 265.844 711.401 265.966 711.881 265.966Z"
        fill="#98A2B3" />
    <path
        d="M798.32 262.186C798.864 262.186 799.356 262.318 799.796 262.582C800.24 262.842 800.592 263.198 800.852 263.65C801.112 264.098 801.242 264.602 801.242 265.162V268.162C801.242 268.738 801.112 269.254 800.852 269.71C800.592 270.166 800.236 270.526 799.784 270.79C799.336 271.05 798.826 271.18 798.254 271.18C797.762 271.18 797.306 271.072 796.886 270.856C796.47 270.636 796.126 270.334 795.854 269.95L796.526 269.392C796.71 269.676 796.954 269.904 797.258 270.076C797.566 270.248 797.898 270.334 798.254 270.334C798.662 270.334 799.022 270.238 799.334 270.046C799.65 269.85 799.898 269.594 800.078 269.278C800.262 268.958 800.354 268.612 800.354 268.24V266.356L800.57 266.608C800.322 267.004 799.992 267.324 799.58 267.568C799.172 267.812 798.724 267.934 798.236 267.934C797.704 267.934 797.222 267.806 796.79 267.55C796.362 267.294 796.022 266.95 795.77 266.518C795.522 266.086 795.398 265.604 795.398 265.072C795.398 264.54 795.53 264.056 795.794 263.62C796.058 263.18 796.412 262.832 796.856 262.576C797.3 262.316 797.788 262.186 798.32 262.186ZM798.32 263.038C797.944 263.038 797.602 263.13 797.294 263.314C796.986 263.494 796.74 263.738 796.556 264.046C796.376 264.354 796.286 264.696 796.286 265.072C796.286 265.448 796.376 265.79 796.556 266.098C796.736 266.406 796.98 266.652 797.288 266.836C797.596 267.016 797.938 267.106 798.314 267.106C798.69 267.106 799.032 267.016 799.34 266.836C799.652 266.652 799.898 266.406 800.078 266.098C800.262 265.79 800.354 265.448 800.354 265.072C800.354 264.7 800.262 264.36 800.078 264.052C799.898 263.744 799.654 263.498 799.346 263.314C799.038 263.13 798.696 263.038 798.32 263.038Z"
        fill="#98A2B3" />
    <path
        d="M881.173 271V263.344L879.547 264.322V263.332L881.173 262.36H882.067V271H881.173ZM887.162 271.18C886.63 271.18 886.15 271.056 885.722 270.808C885.298 270.56 884.962 270.224 884.714 269.8C884.466 269.372 884.342 268.892 884.342 268.36V265C884.342 264.468 884.466 263.99 884.714 263.566C884.962 263.138 885.298 262.8 885.722 262.552C886.15 262.304 886.63 262.18 887.162 262.18C887.694 262.18 888.172 262.304 888.596 262.552C889.024 262.8 889.362 263.138 889.61 263.566C889.858 263.99 889.982 264.468 889.982 265V268.36C889.982 268.892 889.858 269.372 889.61 269.8C889.362 270.224 889.024 270.56 888.596 270.808C888.172 271.056 887.694 271.18 887.162 271.18ZM887.162 270.328C887.518 270.328 887.842 270.242 888.134 270.07C888.426 269.894 888.658 269.66 888.83 269.368C889.002 269.076 889.088 268.754 889.088 268.402V264.958C889.088 264.602 889.002 264.278 888.83 263.986C888.658 263.694 888.426 263.462 888.134 263.29C887.842 263.114 887.518 263.026 887.162 263.026C886.806 263.026 886.482 263.114 886.19 263.29C885.898 263.462 885.666 263.694 885.494 263.986C885.322 264.278 885.236 264.602 885.236 264.958V268.402C885.236 268.754 885.322 269.076 885.494 269.368C885.666 269.66 885.898 269.894 886.19 270.07C886.482 270.242 886.806 270.328 887.162 270.328Z"
        fill="#98A2B3" />
    <path d="M968.966 271V263.344L967.34 264.322V263.332L968.966 262.36H969.86V271H968.966ZM973.642 271V263.344L972.016 264.322V263.332L973.642 262.36H974.536V271H973.642Z" fill="#98A2B3" />
    <path
        d="M1054.35 271V263.344L1052.73 264.322V263.332L1054.35 262.36H1055.25V271H1054.35ZM1057.28 270.994L1057.29 270.19L1061.19 266.662C1061.53 266.358 1061.75 266.07 1061.86 265.798C1061.97 265.522 1062.03 265.234 1062.03 264.934C1062.03 264.578 1061.94 264.256 1061.78 263.968C1061.61 263.68 1061.38 263.452 1061.1 263.284C1060.81 263.112 1060.5 263.026 1060.14 263.026C1059.78 263.026 1059.45 263.114 1059.16 263.29C1058.87 263.466 1058.64 263.698 1058.48 263.986C1058.31 264.274 1058.23 264.588 1058.24 264.928H1057.34C1057.34 264.404 1057.46 263.934 1057.71 263.518C1057.96 263.102 1058.29 262.776 1058.72 262.54C1059.14 262.3 1059.62 262.18 1060.16 262.18C1060.68 262.18 1061.15 262.304 1061.57 262.552C1061.99 262.796 1062.32 263.128 1062.56 263.548C1062.8 263.964 1062.92 264.428 1062.92 264.94C1062.92 265.3 1062.88 265.618 1062.79 265.894C1062.71 266.166 1062.57 266.42 1062.39 266.656C1062.21 266.888 1061.98 267.128 1061.7 267.376L1058.23 270.508L1058.09 270.148H1062.92V270.994H1057.28Z"
        fill="#98A2B3" />
    <path
        d="M281.011 179.136C247.191 180.795 228.882 171.582 194.961 172.532C160.243 173.505 139.987 176.296 108.912 184.389V250H1055.46V14C1036.23 98.88 1022.92 216.049 969.406 222.742C915.894 229.434 925.305 103.901 883.356 98.88C841.407 93.8593 854.027 158.609 797.307 159.653C758.277 160.372 747.828 133.099 711.258 133.211C674.687 133.324 670.259 172.334 625.208 173.133C585.359 173.839 579.026 144.958 539.159 144.618C500.516 144.287 491.277 166.832 453.109 169.981C419.51 172.753 400.945 161.352 367.06 162.927C331.453 164.583 316.602 177.39 281.011 179.136Z"
        fill="url(#paint0_linear_3556_306)" />
    <path
        d="M108.912 184.389C139.987 176.296 160.243 173.505 194.961 172.532C228.882 171.582 247.191 180.795 281.011 179.136C316.602 177.39 331.453 164.583 367.06 162.927C400.945 161.352 419.51 172.753 453.109 169.981C491.278 166.832 500.516 144.287 539.159 144.618C579.026 144.958 585.359 173.839 625.208 173.133C670.259 172.334 674.687 133.324 711.258 133.211C747.829 133.099 758.277 160.372 797.307 159.653C854.027 158.609 841.407 93.8593 883.356 98.88C925.305 103.901 915.894 229.434 969.406 222.742C1022.92 216.049 1036.23 98.88 1055.46 14"
        stroke="#5A65AB" stroke-width="2" stroke-linejoin="round" />
</svg>